<?xml version="1.0" encoding="utf-8"?>
<!-- Generator: Adobe Illustrator 22.0.0, SVG Export Plug-In . SVG Version: 6.00 Build 0)  -->
<svg version="1.1" id="Laag_1" xmlns="http://www.w3.org/2000/svg" xmlns:xlink="http://www.w3.org/1999/xlink" x="0px" y="0px"
	 viewBox="0 0 374.5 75" style="enable-background:new 0 0 374.5 75;" xml:space="preserve">
<style type="text/css">
	.st0{fill:none;stroke:#F2832C;stroke-width:0.25;stroke-miterlimit:10;}
	.st1{fill:url(#SVGID_1_);}
	.st2{opacity:0.43;fill:#F2F8F9;}
	.st3{fill:#F2F8F9;}
	.st4{fill:url(#SVGID_2_);}
	.st5{opacity:0.59;fill:#F2F8F9;}
	.st6{fill:none;stroke:#FFFFFF;stroke-width:0.5;stroke-linecap:round;stroke-linejoin:round;stroke-miterlimit:10;}
	.st7{fill:#1A2062;}
	.st8{fill:#EBAA21;}
	.st9{fill:none;stroke:#1A2062;stroke-width:2;stroke-miterlimit:10;}
	.st10{fill:url(#SVGID_3_);}
	.st11{fill:none;stroke:#FFFFFF;stroke-miterlimit:10;}
	.st12{fill:url(#SVGID_4_);}
	.st13{fill:none;stroke:url(#SVGID_5_);stroke-width:0.25;stroke-miterlimit:10;}
	.st14{fill:none;stroke:url(#SVGID_6_);stroke-width:0.25;stroke-miterlimit:10;}
	.st15{fill:none;stroke:url(#SVGID_7_);stroke-width:0.25;stroke-miterlimit:10;}
	.st16{fill:#ECAD22;}
	.st17{fill:#FFFFFF;}
	.st18{font-family:'CentraleSansXBold';}
	.st19{font-size:9.2587px;}
</style>
<circle class="st0" cx="37.3" cy="37.5" r="36"/>
<linearGradient id="SVGID_1_" gradientUnits="userSpaceOnUse" x1="13.6109" y1="13.8128" x2="61.0167" y2="61.2186">
	<stop  offset="0.1949" style="stop-color:#ECAD22"/>
	<stop  offset="1" style="stop-color:#F8CF72"/>
</linearGradient>
<circle class="st1" cx="37.3" cy="37.5" r="33.5"/>
<path class="st2" d="M49.7,59.4H24.9c-1.4,0-2.6-1.2-2.6-2.6V16.3c0-1.4,1.2-2.6,2.6-2.6h24.9c1.4,0,2.6,1.2,2.6,2.6v40.5
	C52.4,58.2,51.2,59.4,49.7,59.4z"/>
<path class="st3" d="M25.7,17.3v17.8l0,14.1c0,1.2,1,2.3,2.3,2.3h20.8V17.3H25.7z M36.2,29.8h-6.6c-0.6,0-1.1-0.5-1.1-1.1v-6.6
	c0-0.6,0.5-1.1,1.1-1.1h6.6c0.6,0,1.1,0.5,1.1,1.1v6.6C37.3,29.3,36.8,29.8,36.2,29.8z"/>
<linearGradient id="SVGID_2_" gradientUnits="userSpaceOnUse" x1="292.2735" y1="14.6895" x2="339.6791" y2="62.0952">
	<stop  offset="1.031651e-02" style="stop-color:#1B8CC2"/>
	<stop  offset="0.7692" style="stop-color:#72B4CB"/>
</linearGradient>
<circle class="st4" cx="316" cy="38.4" r="33.5"/>
<path class="st5" d="M327.3,24.6c2.5-2.3,2.7-6.3,0.3-8.8c-1.2-1.3-2.9-2-4.5-2c-1.5,0-3,0.6-4.2,1.7c-1.6,1.4-2.1,5.2-2.3,7.9
	c-0.2-2.7-0.8-6.4-2.3-7.9c-1.2-1.1-2.7-1.7-4.2-1.7c-1.7,0-3.3,0.7-4.5,2c-2.3,2.5-2.2,6.4,0.3,8.8c1.2,1.1,3.9,1.6,6.1,1.7h-5.7
	c-0.8,0-1.4,0.6-1.4,1.4v7.3l9.5,9.4V32.2l-3.5,3.5v-3.4l-3.2,0l6-6c0,0,1.7-2,3-2c2.3,0,2.4,1.7,2.4,2v22.8l2.2,2.3h5.2
	c1,0,1.8-0.8,1.8-1.8V26.3h-6.3C323.7,26.2,326,25.8,327.3,24.6z M311.9,22.3c-1.8-0.1-4.2-0.4-4.2-2.2c0-0.6,0.2-1.2,0.6-1.6
	c0.6-0.6,1.3-0.7,1.6-0.7c1.5,0,2.4,2.6,2.4,4.5L311.9,22.3z M321.6,18.4c0.4-0.4,0.9-0.5,1.4-0.5c0.4,0,1,0.1,1.6,0.7
	c0.4,0.4,0.6,1,0.6,1.6c0,0.3-0.1,1-0.7,1.5c0,0-0.7,0.7-3.3,0.7h-0.8C320.6,20.3,321.2,18.8,321.6,18.4z"/>
<path class="st6" d="M303.2,49.9"/>
<path class="st6" d="M298.2,52"/>
<circle class="st7" cx="32.9" cy="23.6" r="1.4"/>
<path class="st7" d="M35.6,27.7c-0.1-0.9-0.3-2-1.2-2.5c-0.2-0.1-0.3-0.1-0.5,0.1c-0.2,0.1-0.5,0.3-1,0.3c-0.4,0-0.8-0.1-1-0.3
	c-0.2-0.1-0.2-0.2-0.5-0.1c-0.9,0.5-1.2,1.7-1.2,2.5c-0.1,1.1,0.2,2.1,0.2,2.1h2.4h2.4C35.3,29.8,35.7,28.8,35.6,27.7z"/>
<path class="st8" d="M45,47.5H29.4c-0.5,0-0.8-0.4-0.8-0.8v-2.6c0-0.5,0.4-0.8,0.8-0.8H45c0.5,0,0.8,0.4,0.8,0.8v2.6
	C45.8,47.1,45.4,47.5,45,47.5z"/>
<path class="st8" d="M45,41.8H29.4c-0.5,0-0.8-0.4-0.8-0.8v-2.6c0-0.5,0.4-0.8,0.8-0.8H45c0.5,0,0.8,0.4,0.8,0.8V41
	C45.8,41.4,45.4,41.8,45,41.8z"/>
<path class="st8" d="M45,36.2H29.4c-0.5,0-0.8-0.4-0.8-0.8v-2.6c0-0.5,0.4-0.8,0.8-0.8H45c0.5,0,0.8,0.4,0.8,0.8v2.6
	C45.8,35.8,45.4,36.2,45,36.2z"/>
<path class="st2" d="M45,47.5H29.4c-0.5,0-0.8-0.4-0.8-0.8v-2.6c0-0.5,0.4-0.8,0.8-0.8H45c0.5,0,0.8,0.4,0.8,0.8v2.6
	C45.8,47.1,45.4,47.5,45,47.5z"/>
<path class="st2" d="M45,41.8H29.4c-0.5,0-0.8-0.4-0.8-0.8v-2.6c0-0.5,0.4-0.8,0.8-0.8H45c0.5,0,0.8,0.4,0.8,0.8V41
	C45.8,41.4,45.4,41.8,45,41.8z"/>
<path class="st2" d="M45,36.2H29.4c-0.5,0-0.8-0.4-0.8-0.8v-2.6c0-0.5,0.4-0.8,0.8-0.8H45c0.5,0,0.8,0.4,0.8,0.8v2.6
	C45.8,35.8,45.4,36.2,45,36.2z"/>
<line class="st9" x1="30" y1="34.1" x2="44.6" y2="34.1"/>
<line class="st9" x1="30" y1="39.7" x2="44.6" y2="39.7"/>
<circle class="st3" cx="36.9" cy="55.2" r="1.9"/>
<rect x="30" y="44.3" class="st7" width="7.1" height="2"/>
<linearGradient id="SVGID_3_" gradientUnits="userSpaceOnUse" x1="106.9211" y1="14.9971" x2="154.3267" y2="62.4027">
	<stop  offset="1.031651e-02" style="stop-color:#1B8CC2"/>
	<stop  offset="0.7692" style="stop-color:#72B4CB"/>
</linearGradient>
<circle class="st10" cx="130.6" cy="38.7" r="33.5"/>
<path class="st5" d="M121.1,17.3v17.8l16.3,16.3h6.8V17.3H121.1z"/>
<line class="st9" x1="124.4" y1="34.1" x2="140.6" y2="34.1"/>
<polygon class="st7" points="140.6,46.3 132.3,46.3 130.3,44.3 140.6,44.3 "/>
<polygon class="st7" points="140.6,40.6 126.7,40.6 124.7,38.7 140.6,38.7 "/>
<rect x="111.2" y="40.6" transform="matrix(-0.7071 -0.7071 0.7071 -0.7071 174.5607 171.5058)" class="st11" width="23.1" height="18.1"/>
<linearGradient id="SVGID_4_" gradientUnits="userSpaceOnUse" x1="199.6104" y1="14.9971" x2="247.016" y2="62.4027">
	<stop  offset="1.031651e-02" style="stop-color:#1B8CC2"/>
	<stop  offset="0.7692" style="stop-color:#72B4CB"/>
</linearGradient>
<circle class="st12" cx="223.3" cy="38.7" r="33.5"/>
<rect x="208.5" y="47.1" class="st7" width="16.3" height="2"/>
<linearGradient id="SVGID_5_" gradientUnits="userSpaceOnUse" x1="73.3213" y1="38.5195" x2="97.1031" y2="38.5195">
	<stop  offset="9.232772e-02" style="stop-color:#F2832C"/>
	<stop  offset="0.7769" style="stop-color:#1B8CC2"/>
</linearGradient>
<line class="st13" x1="73.3" y1="38.5" x2="97.1" y2="38.5"/>
<linearGradient id="SVGID_6_" gradientUnits="userSpaceOnUse" x1="256.8079" y1="38.6999" x2="282.4555" y2="38.6999">
	<stop  offset="0.1" style="stop-color:#72B4CB"/>
	<stop  offset="1" style="stop-color:#1B8CC2"/>
</linearGradient>
<line class="st14" x1="256.8" y1="38.7" x2="282.5" y2="38.7"/>
<linearGradient id="SVGID_7_" gradientUnits="userSpaceOnUse" x1="164.1447" y1="38.6999" x2="189.7923" y2="38.6999">
	<stop  offset="0.1" style="stop-color:#72B4CB"/>
	<stop  offset="1" style="stop-color:#1B8CC2"/>
</linearGradient>
<line class="st15" x1="164.1" y1="38.7" x2="189.8" y2="38.7"/>
<rect x="208.5" y="52.7" class="st7" width="16.3" height="2"/>
<path class="st5" d="M222.8,38h-12.3c-1.1,0-2.1-0.9-2.1-2.1V23.6c0-1.1,0.9-2.1,2.1-2.1h12.3c1.1,0,2.1,0.9,2.1,2.1V36
	C224.8,37.1,223.9,38,222.8,38z"/>
<circle class="st7" cx="216.6" cy="26.4" r="2.7"/>
<path class="st7" d="M221.6,34.1c-0.1-1.7-0.6-3.8-2.3-4.8c-0.4-0.2-0.5-0.1-0.9,0.1c-0.4,0.3-1,0.5-1.8,0.5c-0.8,0-1.5-0.3-1.9-0.5
	c-0.3-0.2-0.4-0.4-0.9-0.1c-1.7,1-2.2,3.1-2.3,4.8c-0.1,2.1,0.5,3.9,0.5,3.9h4.6h4.6C221.2,38,221.8,36.2,221.6,34.1z"/>
<rect x="208.5" y="41.5" class="st7" width="16.3" height="2"/>
<g>
	<path class="st16" d="M239.1,29.8h-6.3c-0.6,0-1-0.5-1-1v-6.3c0-0.6,0.5-1,1-1h7.3v7.3C240.1,29.3,239.7,29.8,239.1,29.8z"/>
	<g>
		<polygon class="st17" points="235.4,29.7 231.8,26.1 233.2,24.7 235.4,26.9 240.1,22.2 241.5,23.6 		"/>
	</g>
</g>
<g>
	<path class="st16" d="M239.1,42.4h-6.3c-0.6,0-1-0.5-1-1v-6.3c0-0.6,0.5-1,1-1h7.3v7.3C240.1,41.9,239.7,42.4,239.1,42.4z"/>
	<g>
		<polygon class="st17" points="235.4,42.3 231.8,38.7 233.2,37.2 235.4,39.5 240.1,34.8 241.5,36.2 		"/>
	</g>
</g>
<g>
	<path class="st16" d="M239.1,54.9h-6.3c-0.6,0-1-0.5-1-1v-6.3c0-0.6,0.5-1,1-1h7.3v7.3C240.1,54.5,239.7,54.9,239.1,54.9z"/>
	<g>
		<polygon class="st17" points="235.4,54.9 231.8,51.2 233.2,49.8 235.4,52 240.1,47.3 241.5,48.7 		"/>
	</g>
</g>
<text transform="matrix(0.7071 0.7071 -0.7071 0.7071 307.9143 51.1632)" class="st17 st18 st19">€</text>
<path class="st11" d="M296.8,43.1l12.6,12.6l3.7,3.7l8-8l-16.3-16.3L296.8,43.1z"/>
<path class="st6" d="M300.1,46.4l-4.9,4.9l12.6,12.6l3.7,3.7l8-8l-3.2-3.2"/>
<path class="st6" d="M123.2,51.4h14.2L121,35.1l0,14.1C121,50.4,122,51.4,123.2,51.4z"/>
<line class="st6" x1="300.1" y1="46.4" x2="307.7" y2="38.7"/>
<line class="st6" x1="299.1" y1="55.3" x2="304" y2="50.3"/>
<path class="st16" d="M322.7,35.7c-0.2-0.2-6.5-6.5-7.3-7.3s-1.5-2.4-0.4-3.5c1.1-1.1,2.7-0.6,3.5,0.2c0.8,0.8,7.3,7.3,7.3,7.3h-3.2
	V35.7z"/>
<path class="st16" d="M131.7,29.8h-6.3c-0.6,0-1-0.5-1-1v-6.5c0-0.6,0.5-1,1-1h6.3c0.6,0,1,0.5,1,1v6.5
	C132.7,29.3,132.2,29.8,131.7,29.8z"/>
<circle class="st7" cx="128.5" cy="23.9" r="1.4"/>
<path class="st7" d="M131.1,27.8c-0.1-0.8-0.3-1.9-1.2-2.4c-0.2-0.1-0.3-0.1-0.4,0.1c-0.2,0.1-0.5,0.3-0.9,0.3
	c-0.4,0-0.8-0.1-0.9-0.3c-0.2-0.1-0.2-0.2-0.4-0.1c-0.9,0.5-1.1,1.6-1.2,2.4c-0.1,1,0.2,2,0.2,2h2.3h2.3
	C130.8,29.8,131.2,28.9,131.1,27.8z"/>
</svg>
